# xmcd
#
# Track frame offsets: 
#        150
#        14230
#        17787
#        21734
#        42444
#        60954
#        74095
#        88800
#        102015
#        118774
#        134655
#        137735
#        156544
#        175315
#        192199
#        195571
#        209144
#        232949
#        236716
#        255393
#        273807
#        286492
#        294609
#
# Disc length: 4137 seconds
#
# Revision: 0
# Processed by: cddbd v1.5.2PL0 Copyright (c) Steve Scherf et al.
# Submitted via: ExactAudioCopy v0.95b3
#
DISCID=6c102717
DTITLE=The Beatles  - Let It Be Deluxe - 11 - Disc 4 - acetate 3  FLAC
DYEAR=1900
DGENRE=
TTITLE0=One After 909 (acetate 3)
TTITLE1=I'm Ready (acetate 3)
TTITLE2=Save The Last Dance For Me (acetate 3)
TTITLE3=Don't Let Me Down (acetate 3)
TTITLE4=Dig A Pony (acetate 3)
TTITLE5=I've Got A Feeling (acetate 3)
TTITLE6=Get Back (acetate 3)
TTITLE7=For You Blue (acetate 3)
TTITLE8=Teddy Boy (acetate 3)
TTITLE9=Two Of Us (acetate 3)
TTITLE10=Maggie Mae (acetate 3)
TTITLE11=Dig It (acetate 3)
TTITLE12=Let It Be (acetate 3)
TTITLE13=The Long And Winding Road (acetate 3)
TTITLE14=Get Back Reprise (acetate 3)
TTITLE15=Get Back (acetate 2)
TTITLE16=Dig It (acetate 2)
TTITLE17=Save The Last Dance For Me (acetate 4)
TTITLE18=Don't Let Me Down (acetate 4)
TTITLE19=Dig A Pony (acetate 4)
TTITLE20=For You Blue (acetate 4)
TTITLE21=I Me Mine (acetate 4)
TTITLE22=Across The Universe (acetate 4)
EXTD=
EXTT0=
EXTT1=
EXTT2=
EXTT3=
EXTT4=
EXTT5=
EXTT6=
EXTT7=
EXTT8=
EXTT9=
EXTT10=
EXTT11=
EXTT12=
EXTT13=
EXTT14=
EXTT15=
EXTT16=
EXTT17=
EXTT18=
EXTT19=
EXTT20=
EXTT21=
EXTT22=
PLAYORDER=
